%TF.GenerationSoftware,KiCad,Pcbnew,9.0.3*%
%TF.CreationDate,2025-11-18T21:13:43-05:00*%
%TF.ProjectId,digikey_water-alarm,64696769-6b65-4795-9f77-617465722d61,rev?*%
%TF.SameCoordinates,Original*%
%TF.FileFunction,Copper,L1,Top*%
%TF.FilePolarity,Positive*%
%FSLAX46Y46*%
G04 Gerber Fmt 4.6, Leading zero omitted, Abs format (unit mm)*
G04 Created by KiCad (PCBNEW 9.0.3) date 2025-11-18 21:13:43*
%MOMM*%
%LPD*%
G01*
G04 APERTURE LIST*
G04 Aperture macros list*
%AMRoundRect*
0 Rectangle with rounded corners*
0 $1 Rounding radius*
0 $2 $3 $4 $5 $6 $7 $8 $9 X,Y pos of 4 corners*
0 Add a 4 corners polygon primitive as box body*
4,1,4,$2,$3,$4,$5,$6,$7,$8,$9,$2,$3,0*
0 Add four circle primitives for the rounded corners*
1,1,$1+$1,$2,$3*
1,1,$1+$1,$4,$5*
1,1,$1+$1,$6,$7*
1,1,$1+$1,$8,$9*
0 Add four rect primitives between the rounded corners*
20,1,$1+$1,$2,$3,$4,$5,0*
20,1,$1+$1,$4,$5,$6,$7,0*
20,1,$1+$1,$6,$7,$8,$9,0*
20,1,$1+$1,$8,$9,$2,$3,0*%
G04 Aperture macros list end*
%TA.AperFunction,ComponentPad*%
%ADD10R,1.800000X1.100000*%
%TD*%
%TA.AperFunction,ComponentPad*%
%ADD11RoundRect,0.275000X-0.625000X0.275000X-0.625000X-0.275000X0.625000X-0.275000X0.625000X0.275000X0*%
%TD*%
%TA.AperFunction,ComponentPad*%
%ADD12C,1.400000*%
%TD*%
%TA.AperFunction,ComponentPad*%
%ADD13C,1.600000*%
%TD*%
%TA.AperFunction,ComponentPad*%
%ADD14RoundRect,0.250001X0.949999X-0.949999X0.949999X0.949999X-0.949999X0.949999X-0.949999X-0.949999X0*%
%TD*%
%TA.AperFunction,ComponentPad*%
%ADD15C,2.400000*%
%TD*%
%TA.AperFunction,ComponentPad*%
%ADD16R,2.000000X2.000000*%
%TD*%
%TA.AperFunction,ComponentPad*%
%ADD17C,2.000000*%
%TD*%
%TA.AperFunction,ComponentPad*%
%ADD18R,2.000000X4.600000*%
%TD*%
%TA.AperFunction,ComponentPad*%
%ADD19O,2.000000X4.200000*%
%TD*%
%TA.AperFunction,ViaPad*%
%ADD20C,0.600000*%
%TD*%
%TA.AperFunction,Conductor*%
%ADD21C,0.200000*%
%TD*%
G04 APERTURE END LIST*
D10*
%TO.P,Q1,1,S*%
%TO.N,GND*%
X151238000Y-93599000D03*
D11*
%TO.P,Q1,2,G*%
%TO.N,/Gate*%
X153308000Y-94869000D03*
%TO.P,Q1,3,D*%
%TO.N,Net-(BZ1--)*%
X151238000Y-96139000D03*
%TD*%
D12*
%TO.P,R1,1*%
%TO.N,/Gate*%
X150698200Y-85877400D03*
%TO.P,R1,2*%
%TO.N,GND*%
X150698200Y-90957400D03*
%TD*%
D13*
%TO.P,C1,1*%
%TO.N,/Gate*%
X153238200Y-88335800D03*
%TO.P,C1,2*%
%TO.N,GND*%
X153238200Y-90835800D03*
%TD*%
D14*
%TO.P,J2,1,Pin_1*%
%TO.N,VCC*%
X158247700Y-95298200D03*
D15*
%TO.P,J2,2,Pin_2*%
%TO.N,/Gate*%
X158247700Y-91798200D03*
%TD*%
D16*
%TO.P,BZ1,1,+*%
%TO.N,VCC*%
X133724000Y-102597600D03*
D17*
%TO.P,BZ1,2,-*%
%TO.N,Net-(BZ1--)*%
X133724000Y-87597600D03*
%TD*%
D18*
%TO.P,J1,1*%
%TO.N,VCC*%
X151155400Y-102870000D03*
D19*
%TO.P,J1,2*%
%TO.N,GND*%
X157455400Y-102870000D03*
%TD*%
D20*
%TO.N,/Gate*%
X147345400Y-90601800D03*
%TD*%
D21*
%TO.N,Net-(BZ1--)*%
X142265400Y-96139000D02*
X133724000Y-87597600D01*
X151638000Y-96139000D02*
X142265400Y-96139000D01*
%TO.N,/Gate*%
X150698200Y-85877400D02*
X147345400Y-89230200D01*
X147345400Y-89230200D02*
X147345400Y-90601800D01*
%TD*%
%TA.AperFunction,Conductor*%
%TO.N,GND*%
G36*
X158750936Y-82898326D02*
G01*
X159040996Y-82915871D01*
X159055859Y-82917676D01*
X159337998Y-82969380D01*
X159352535Y-82972963D01*
X159626372Y-83058295D01*
X159640363Y-83063600D01*
X159901943Y-83181327D01*
X159915189Y-83188280D01*
X160160665Y-83336675D01*
X160172976Y-83345173D01*
X160398773Y-83522073D01*
X160409981Y-83532003D01*
X160612796Y-83734818D01*
X160622726Y-83746026D01*
X160742681Y-83899138D01*
X160799622Y-83971817D01*
X160808128Y-83984140D01*
X160956516Y-84229604D01*
X160963475Y-84242863D01*
X161081197Y-84504431D01*
X161086506Y-84518432D01*
X161171835Y-84792263D01*
X161175419Y-84806801D01*
X161227123Y-85088940D01*
X161228928Y-85103805D01*
X161246474Y-85393863D01*
X161246700Y-85401350D01*
X161246700Y-112109049D01*
X161246474Y-112116536D01*
X161228928Y-112406594D01*
X161227123Y-112421459D01*
X161175419Y-112703598D01*
X161171835Y-112718136D01*
X161086506Y-112991967D01*
X161081197Y-113005968D01*
X160963475Y-113267536D01*
X160956516Y-113280795D01*
X160808128Y-113526259D01*
X160799622Y-113538582D01*
X160622726Y-113764373D01*
X160612796Y-113775581D01*
X160409981Y-113978396D01*
X160398773Y-113988326D01*
X160172982Y-114165222D01*
X160160659Y-114173728D01*
X159915195Y-114322116D01*
X159901936Y-114329075D01*
X159640368Y-114446797D01*
X159626367Y-114452106D01*
X159352536Y-114537435D01*
X159337998Y-114541019D01*
X159055859Y-114592723D01*
X159040994Y-114594528D01*
X158750936Y-114612074D01*
X158743449Y-114612300D01*
X134702751Y-114612300D01*
X134695264Y-114612074D01*
X134405205Y-114594528D01*
X134390340Y-114592723D01*
X134108201Y-114541019D01*
X134093663Y-114537435D01*
X133819832Y-114452106D01*
X133805831Y-114446797D01*
X133544263Y-114329075D01*
X133531004Y-114322116D01*
X133285540Y-114173728D01*
X133273217Y-114165222D01*
X133047426Y-113988326D01*
X133036218Y-113978396D01*
X132833403Y-113775581D01*
X132823473Y-113764373D01*
X132646573Y-113538576D01*
X132638075Y-113526265D01*
X132489680Y-113280789D01*
X132482727Y-113267543D01*
X132365000Y-113005963D01*
X132359693Y-112991967D01*
X132274364Y-112718136D01*
X132270780Y-112703598D01*
X132221501Y-112434693D01*
X132219075Y-112421457D01*
X132217271Y-112406594D01*
X132199726Y-112116536D01*
X132199500Y-112109049D01*
X132199500Y-111283111D01*
X156137500Y-111283111D01*
X156137500Y-111525688D01*
X156169161Y-111766185D01*
X156231947Y-112000504D01*
X156324773Y-112224605D01*
X156324776Y-112224612D01*
X156446064Y-112434689D01*
X156446066Y-112434692D01*
X156446067Y-112434693D01*
X156593733Y-112627136D01*
X156593739Y-112627143D01*
X156765256Y-112798660D01*
X156765262Y-112798665D01*
X156957711Y-112946336D01*
X157167788Y-113067624D01*
X157391900Y-113160454D01*
X157626211Y-113223238D01*
X157806586Y-113246984D01*
X157866711Y-113254900D01*
X157866712Y-113254900D01*
X158109289Y-113254900D01*
X158157388Y-113248567D01*
X158349789Y-113223238D01*
X158584100Y-113160454D01*
X158808212Y-113067624D01*
X159018289Y-112946336D01*
X159210738Y-112798665D01*
X159382265Y-112627138D01*
X159529936Y-112434689D01*
X159651224Y-112224612D01*
X159744054Y-112000500D01*
X159806838Y-111766189D01*
X159838500Y-111525688D01*
X159838500Y-111283112D01*
X159806838Y-111042611D01*
X159744054Y-110808300D01*
X159651224Y-110584188D01*
X159529936Y-110374111D01*
X159382265Y-110181662D01*
X159382260Y-110181656D01*
X159210743Y-110010139D01*
X159210736Y-110010133D01*
X159018293Y-109862467D01*
X159018292Y-109862466D01*
X159018289Y-109862464D01*
X158808212Y-109741176D01*
X158808205Y-109741173D01*
X158584104Y-109648347D01*
X158349785Y-109585561D01*
X158109289Y-109553900D01*
X158109288Y-109553900D01*
X157866712Y-109553900D01*
X157866711Y-109553900D01*
X157626214Y-109585561D01*
X157391895Y-109648347D01*
X157167794Y-109741173D01*
X157167785Y-109741177D01*
X156957706Y-109862467D01*
X156765263Y-110010133D01*
X156765256Y-110010139D01*
X156593739Y-110181656D01*
X156593733Y-110181663D01*
X156446067Y-110374106D01*
X156324777Y-110584185D01*
X156324773Y-110584194D01*
X156231947Y-110808295D01*
X156169161Y-111042614D01*
X156137500Y-111283111D01*
X132199500Y-111283111D01*
X132199500Y-104077886D01*
X132219185Y-104010847D01*
X132271989Y-103965092D01*
X132341147Y-103955148D01*
X132397810Y-103978619D01*
X132481665Y-104041393D01*
X132481668Y-104041395D01*
X132481671Y-104041397D01*
X132616517Y-104091691D01*
X132616516Y-104091691D01*
X132623444Y-104092435D01*
X132676127Y-104098100D01*
X134771872Y-104098099D01*
X134831483Y-104091691D01*
X134966331Y-104041396D01*
X135081546Y-103955146D01*
X135167796Y-103839931D01*
X135218091Y-103705083D01*
X135224500Y-103645473D01*
X135224499Y-101549728D01*
X135218091Y-101490117D01*
X135207974Y-101462993D01*
X135167797Y-101355271D01*
X135167793Y-101355264D01*
X135081547Y-101240055D01*
X135081544Y-101240052D01*
X134966335Y-101153806D01*
X134966328Y-101153802D01*
X134831482Y-101103508D01*
X134831483Y-101103508D01*
X134771883Y-101097101D01*
X134771881Y-101097100D01*
X134771873Y-101097100D01*
X134771864Y-101097100D01*
X132676129Y-101097100D01*
X132676123Y-101097101D01*
X132616516Y-101103508D01*
X132481671Y-101153802D01*
X132481669Y-101153804D01*
X132397811Y-101216580D01*
X132332347Y-101240997D01*
X132264074Y-101226145D01*
X132214668Y-101176740D01*
X132199500Y-101117313D01*
X132199500Y-100522135D01*
X149654900Y-100522135D01*
X149654900Y-105217870D01*
X149654901Y-105217876D01*
X149661308Y-105277483D01*
X149711602Y-105412328D01*
X149711606Y-105412335D01*
X149797852Y-105527544D01*
X149797855Y-105527547D01*
X149913064Y-105613793D01*
X149913071Y-105613797D01*
X150047917Y-105664091D01*
X150047916Y-105664091D01*
X150054844Y-105664835D01*
X150107527Y-105670500D01*
X152203272Y-105670499D01*
X152262883Y-105664091D01*
X152397731Y-105613796D01*
X152512946Y-105527546D01*
X152599196Y-105412331D01*
X152649491Y-105277483D01*
X152655900Y-105217873D01*
X152655899Y-101651947D01*
X155955400Y-101651947D01*
X155955400Y-102620000D01*
X156955400Y-102620000D01*
X156955400Y-103120000D01*
X155955400Y-103120000D01*
X155955400Y-104088052D01*
X155992334Y-104321247D01*
X156065297Y-104545802D01*
X156172485Y-104756171D01*
X156311266Y-104947186D01*
X156478213Y-105114133D01*
X156669228Y-105252914D01*
X156879595Y-105360102D01*
X157104144Y-105433063D01*
X157104150Y-105433065D01*
X157205400Y-105449101D01*
X157205400Y-104403012D01*
X157262407Y-104435925D01*
X157389574Y-104470000D01*
X157521226Y-104470000D01*
X157648393Y-104435925D01*
X157705400Y-104403012D01*
X157705400Y-105449100D01*
X157806649Y-105433065D01*
X157806655Y-105433063D01*
X158031204Y-105360102D01*
X158241571Y-105252914D01*
X158432586Y-105114133D01*
X158599533Y-104947186D01*
X158738314Y-104756171D01*
X158845502Y-104545802D01*
X158918465Y-104321247D01*
X158955400Y-104088052D01*
X158955400Y-103120000D01*
X157955400Y-103120000D01*
X157955400Y-102620000D01*
X158955400Y-102620000D01*
X158955400Y-101651947D01*
X158918465Y-101418752D01*
X158845502Y-101194197D01*
X158738314Y-100983828D01*
X158599533Y-100792813D01*
X158432586Y-100625866D01*
X158241571Y-100487085D01*
X158031202Y-100379897D01*
X157806647Y-100306934D01*
X157705400Y-100290897D01*
X157705400Y-101336988D01*
X157648393Y-101304075D01*
X157521226Y-101270000D01*
X157389574Y-101270000D01*
X157262407Y-101304075D01*
X157205400Y-101336988D01*
X157205400Y-100290897D01*
X157104152Y-100306934D01*
X156879597Y-100379897D01*
X156669228Y-100487085D01*
X156478213Y-100625866D01*
X156311266Y-100792813D01*
X156172485Y-100983828D01*
X156065297Y-101194197D01*
X155992334Y-101418752D01*
X155955400Y-101651947D01*
X152655899Y-101651947D01*
X152655899Y-100522128D01*
X152649491Y-100462517D01*
X152599196Y-100327669D01*
X152599195Y-100327668D01*
X152599193Y-100327664D01*
X152512947Y-100212455D01*
X152512944Y-100212452D01*
X152397735Y-100126206D01*
X152397728Y-100126202D01*
X152262882Y-100075908D01*
X152262883Y-100075908D01*
X152203283Y-100069501D01*
X152203281Y-100069500D01*
X152203273Y-100069500D01*
X152203264Y-100069500D01*
X150107529Y-100069500D01*
X150107523Y-100069501D01*
X150047916Y-100075908D01*
X149913071Y-100126202D01*
X149913064Y-100126206D01*
X149797855Y-100212452D01*
X149797852Y-100212455D01*
X149711606Y-100327664D01*
X149711602Y-100327671D01*
X149661308Y-100462517D01*
X149654901Y-100522116D01*
X149654901Y-100522123D01*
X149654900Y-100522135D01*
X132199500Y-100522135D01*
X132199500Y-88427233D01*
X132219185Y-88360194D01*
X132271989Y-88314439D01*
X132341147Y-88304495D01*
X132404703Y-88333520D01*
X132433985Y-88370939D01*
X132440655Y-88384031D01*
X132472044Y-88427233D01*
X132579483Y-88575110D01*
X132746490Y-88742117D01*
X132937567Y-88880943D01*
X132994271Y-88909835D01*
X133148003Y-88988166D01*
X133148005Y-88988166D01*
X133148008Y-88988168D01*
X133238015Y-89017413D01*
X133372631Y-89061153D01*
X133605903Y-89098100D01*
X133605908Y-89098100D01*
X133842097Y-89098100D01*
X133948126Y-89081305D01*
X134075368Y-89061153D01*
X134201566Y-89020147D01*
X134271404Y-89018153D01*
X134327562Y-89050397D01*
X141896684Y-96619520D01*
X141896686Y-96619521D01*
X141896690Y-96619524D01*
X142033609Y-96698573D01*
X142033616Y-96698577D01*
X142186343Y-96739501D01*
X142186345Y-96739501D01*
X142352054Y-96739501D01*
X142352070Y-96739500D01*
X149833110Y-96739500D01*
X149900149Y-96759185D01*
X149938104Y-96797528D01*
X150002853Y-96900576D01*
X150126424Y-97024147D01*
X150274394Y-97117122D01*
X150439343Y-97174841D01*
X150439349Y-97174841D01*
X150439351Y-97174842D01*
X150480750Y-97179506D01*
X150569442Y-97189499D01*
X150569445Y-97189500D01*
X150569448Y-97189500D01*
X151906555Y-97189500D01*
X151906556Y-97189499D01*
X152036657Y-97174841D01*
X152201606Y-97117122D01*
X152349576Y-97024147D01*
X152473147Y-96900576D01*
X152566122Y-96752606D01*
X152623841Y-96587657D01*
X152638500Y-96457552D01*
X152638500Y-96043500D01*
X152658185Y-95976461D01*
X152710989Y-95930706D01*
X152762500Y-95919500D01*
X153976555Y-95919500D01*
X153976556Y-95919499D01*
X154106657Y-95904841D01*
X154271606Y-95847122D01*
X154419576Y-95754147D01*
X154543147Y-95630576D01*
X154636122Y-95482606D01*
X154693841Y-95317657D01*
X154708500Y-95187552D01*
X154708500Y-94550448D01*
X154693841Y-94420343D01*
X154636122Y-94255394D01*
X154543147Y-94107424D01*
X154419576Y-93983853D01*
X154271606Y-93890878D01*
X154271605Y-93890877D01*
X154271604Y-93890877D01*
X154106658Y-93833159D01*
X154106648Y-93833157D01*
X153976558Y-93818500D01*
X153976552Y-93818500D01*
X152639448Y-93818500D01*
X152639441Y-93818500D01*
X152509351Y-93833157D01*
X152509341Y-93833159D01*
X152483960Y-93842041D01*
X152443005Y-93849000D01*
X151918330Y-93849000D01*
X151938075Y-93829255D01*
X151987444Y-93743745D01*
X152013000Y-93648370D01*
X152013000Y-93549630D01*
X151987444Y-93454255D01*
X151938075Y-93368745D01*
X151918330Y-93349000D01*
X152638000Y-93349000D01*
X152638000Y-93001172D01*
X152637999Y-93001155D01*
X152631598Y-92941627D01*
X152631596Y-92941620D01*
X152581354Y-92806913D01*
X152581350Y-92806906D01*
X152495190Y-92691812D01*
X152495187Y-92691809D01*
X152380093Y-92605649D01*
X152380086Y-92605645D01*
X152245379Y-92555403D01*
X152245372Y-92555401D01*
X152185844Y-92549000D01*
X151488000Y-92549000D01*
X151488000Y-93252589D01*
X151407745Y-93298925D01*
X151337925Y-93368745D01*
X151288556Y-93454255D01*
X151263000Y-93549630D01*
X151263000Y-93648370D01*
X151288556Y-93743745D01*
X151337925Y-93829255D01*
X151407745Y-93899075D01*
X151488000Y-93945410D01*
X151488000Y-94649000D01*
X151783500Y-94649000D01*
X151792185Y-94651550D01*
X151801147Y-94650262D01*
X151825187Y-94661240D01*
X151850539Y-94668685D01*
X151856466Y-94675525D01*
X151864703Y-94679287D01*
X151878992Y-94701521D01*
X151896294Y-94721489D01*
X151898581Y-94732003D01*
X151902477Y-94738065D01*
X151907500Y-94773000D01*
X151907500Y-94964500D01*
X151887815Y-95031539D01*
X151835011Y-95077294D01*
X151783500Y-95088500D01*
X150569441Y-95088500D01*
X150439351Y-95103157D01*
X150439341Y-95103159D01*
X150274395Y-95160877D01*
X150126423Y-95253853D01*
X150002853Y-95377423D01*
X149938104Y-95480472D01*
X149885769Y-95526763D01*
X149833110Y-95538500D01*
X142565498Y-95538500D01*
X142498459Y-95518815D01*
X142477817Y-95502181D01*
X141172480Y-94196844D01*
X149838000Y-94196844D01*
X149844401Y-94256372D01*
X149844403Y-94256379D01*
X149894645Y-94391086D01*
X149894649Y-94391093D01*
X149980809Y-94506187D01*
X149980812Y-94506190D01*
X150095906Y-94592350D01*
X150095913Y-94592354D01*
X150230620Y-94642596D01*
X150230627Y-94642598D01*
X150290155Y-94648999D01*
X150290172Y-94649000D01*
X150988000Y-94649000D01*
X150988000Y-93849000D01*
X149838000Y-93849000D01*
X149838000Y-94196844D01*
X141172480Y-94196844D01*
X139976791Y-93001155D01*
X149838000Y-93001155D01*
X149838000Y-93349000D01*
X150988000Y-93349000D01*
X150988000Y-92549000D01*
X150290155Y-92549000D01*
X150230627Y-92555401D01*
X150230620Y-92555403D01*
X150095913Y-92605645D01*
X150095906Y-92605649D01*
X149980812Y-92691809D01*
X149980809Y-92691812D01*
X149894649Y-92806906D01*
X149894645Y-92806913D01*
X149844403Y-92941620D01*
X149844401Y-92941627D01*
X149838000Y-93001155D01*
X139976791Y-93001155D01*
X138981340Y-92005704D01*
X138940918Y-91965282D01*
X150043869Y-91965282D01*
X150043870Y-91965283D01*
X150069259Y-91983729D01*
X150237562Y-92069485D01*
X150417197Y-92127851D01*
X150603753Y-92157400D01*
X150792647Y-92157400D01*
X150979202Y-92127851D01*
X151158837Y-92069485D01*
X151327137Y-91983731D01*
X151352528Y-91965283D01*
X151352528Y-91965282D01*
X151342942Y-91955696D01*
X150698201Y-91310954D01*
X150698200Y-91310954D01*
X150043869Y-91965282D01*
X138940918Y-91965282D01*
X137580182Y-90604547D01*
X137498588Y-90522953D01*
X146544900Y-90522953D01*
X146544900Y-90680646D01*
X146575661Y-90835289D01*
X146575664Y-90835301D01*
X146636002Y-90980972D01*
X146636009Y-90980985D01*
X146723610Y-91112088D01*
X146723613Y-91112092D01*
X146835107Y-91223586D01*
X146835111Y-91223589D01*
X146966214Y-91311190D01*
X146966227Y-91311197D01*
X147111898Y-91371535D01*
X147111903Y-91371537D01*
X147266553Y-91402299D01*
X147266556Y-91402300D01*
X147266558Y-91402300D01*
X147424244Y-91402300D01*
X147424245Y-91402299D01*
X147578897Y-91371537D01*
X147724579Y-91311194D01*
X147855689Y-91223589D01*
X147967189Y-91112089D01*
X148054794Y-90980979D01*
X148103682Y-90862952D01*
X149498200Y-90862952D01*
X149498200Y-91051847D01*
X149527748Y-91238402D01*
X149586114Y-91418037D01*
X149671866Y-91586333D01*
X149690316Y-91611728D01*
X150344646Y-90957400D01*
X150344646Y-90957399D01*
X150298569Y-90911322D01*
X150348200Y-90911322D01*
X150348200Y-91003478D01*
X150372052Y-91092495D01*
X150418130Y-91172305D01*
X150483295Y-91237470D01*
X150563105Y-91283548D01*
X150652122Y-91307400D01*
X150744278Y-91307400D01*
X150833295Y-91283548D01*
X150913105Y-91237470D01*
X150978270Y-91172305D01*
X151024348Y-91092495D01*
X151048200Y-91003478D01*
X151048200Y-90957399D01*
X151051754Y-90957399D01*
X151051754Y-90957400D01*
X151706082Y-91611728D01*
X151706083Y-91611728D01*
X151724531Y-91586337D01*
X151810286Y-91418035D01*
X151821180Y-91384507D01*
X151860616Y-91326831D01*
X151924975Y-91299632D01*
X151993821Y-91311546D01*
X152045297Y-91358789D01*
X152049596Y-91366529D01*
X152126341Y-91517150D01*
X152126347Y-91517159D01*
X152158723Y-91561721D01*
X152158724Y-91561722D01*
X152838200Y-90882246D01*
X152838200Y-90888461D01*
X152865459Y-90990194D01*
X152918120Y-91081406D01*
X152992594Y-91155880D01*
X153083806Y-91208541D01*
X153185539Y-91235800D01*
X153191753Y-91235800D01*
X152512276Y-91915274D01*
X152556850Y-91947659D01*
X152739168Y-92040555D01*
X152933782Y-92103790D01*
X153135883Y-92135800D01*
X153340517Y-92135800D01*
X153542617Y-92103790D01*
X153737231Y-92040555D01*
X153919549Y-91947659D01*
X153964121Y-91915274D01*
X153735596Y-91686749D01*
X156547200Y-91686749D01*
X156547200Y-91909650D01*
X156547201Y-91909666D01*
X156576294Y-92130652D01*
X156576295Y-92130657D01*
X156576296Y-92130663D01*
X156633990Y-92345980D01*
X156633993Y-92345990D01*
X156718083Y-92549000D01*
X156719295Y-92551926D01*
X156830752Y-92744974D01*
X156830757Y-92744980D01*
X156830758Y-92744982D01*
X156966451Y-92921822D01*
X156966457Y-92921829D01*
X157124070Y-93079442D01*
X157124076Y-93079447D01*
X157300926Y-93215148D01*
X157493974Y-93326605D01*
X157493977Y-93326606D01*
X157493982Y-93326609D01*
X157572517Y-93359139D01*
X157626921Y-93402980D01*
X157648986Y-93469274D01*
X157631707Y-93536973D01*
X157580570Y-93584584D01*
X157525065Y-93597700D01*
X157247684Y-93597700D01*
X157144904Y-93608200D01*
X157144903Y-93608201D01*
X156978364Y-93663386D01*
X156978362Y-93663387D01*
X156829048Y-93755486D01*
X156829044Y-93755489D01*
X156704989Y-93879544D01*
X156704986Y-93879548D01*
X156612887Y-94028862D01*
X156612886Y-94028864D01*
X156557701Y-94195403D01*
X156557700Y-94195404D01*
X156547200Y-94298184D01*
X156547200Y-96298215D01*
X156557700Y-96400995D01*
X156557701Y-96400997D01*
X156585293Y-96484265D01*
X156612886Y-96567535D01*
X156612887Y-96567537D01*
X156704986Y-96716851D01*
X156704989Y-96716855D01*
X156829044Y-96840910D01*
X156829048Y-96840913D01*
X156978362Y-96933012D01*
X156978364Y-96933013D01*
X156978366Y-96933014D01*
X157144903Y-96988199D01*
X157247692Y-96998700D01*
X157247697Y-96998700D01*
X159247703Y-96998700D01*
X159247708Y-96998700D01*
X159350497Y-96988199D01*
X159517034Y-96933014D01*
X159666355Y-96840911D01*
X159790411Y-96716855D01*
X159882514Y-96567534D01*
X159937699Y-96400997D01*
X159948200Y-96298208D01*
X159948200Y-94298192D01*
X159937699Y-94195403D01*
X159882514Y-94028866D01*
X159854749Y-93983853D01*
X159790413Y-93879548D01*
X159790410Y-93879544D01*
X159666355Y-93755489D01*
X159666351Y-93755486D01*
X159517037Y-93663387D01*
X159517035Y-93663386D01*
X159433765Y-93635793D01*
X159350497Y-93608201D01*
X159350495Y-93608200D01*
X159247715Y-93597700D01*
X159247708Y-93597700D01*
X158970335Y-93597700D01*
X158903296Y-93578015D01*
X158857541Y-93525211D01*
X158847597Y-93456053D01*
X158876622Y-93392497D01*
X158922883Y-93359139D01*
X159001417Y-93326609D01*
X159001418Y-93326607D01*
X159001426Y-93326605D01*
X159194474Y-93215148D01*
X159371324Y-93079447D01*
X159528947Y-92921824D01*
X159664648Y-92744974D01*
X159776105Y-92551926D01*
X159861410Y-92345981D01*
X159919104Y-92130663D01*
X159948200Y-91909657D01*
X159948200Y-91686743D01*
X159919104Y-91465737D01*
X159861410Y-91250419D01*
X159856432Y-91238402D01*
X159804112Y-91112089D01*
X159776105Y-91044474D01*
X159664648Y-90851426D01*
X159531060Y-90677330D01*
X159528948Y-90674577D01*
X159528942Y-90674570D01*
X159371329Y-90516957D01*
X159371322Y-90516951D01*
X159194482Y-90381258D01*
X159194480Y-90381257D01*
X159194474Y-90381252D01*
X159001426Y-90269795D01*
X159001422Y-90269793D01*
X158795490Y-90184493D01*
X158795483Y-90184491D01*
X158795481Y-90184490D01*
X158580163Y-90126796D01*
X158580157Y-90126795D01*
X158580152Y-90126794D01*
X158359166Y-90097701D01*
X158359163Y-90097700D01*
X158359157Y-90097700D01*
X158136243Y-90097700D01*
X158136237Y-90097700D01*
X158136233Y-90097701D01*
X157915247Y-90126794D01*
X157915240Y-90126795D01*
X157915237Y-90126796D01*
X157699919Y-90184490D01*
X157699909Y-90184493D01*
X157493977Y-90269793D01*
X157493973Y-90269795D01*
X157300926Y-90381252D01*
X157300917Y-90381258D01*
X157124077Y-90516951D01*
X157124070Y-90516957D01*
X156966457Y-90674570D01*
X156966451Y-90674577D01*
X156830758Y-90851417D01*
X156830752Y-90851426D01*
X156719295Y-91044473D01*
X156719293Y-91044477D01*
X156633993Y-91250409D01*
X156633990Y-91250419D01*
X156598062Y-91384507D01*
X156576297Y-91465734D01*
X156576294Y-91465747D01*
X156547201Y-91686733D01*
X156547200Y-91686749D01*
X153735596Y-91686749D01*
X153284647Y-91235800D01*
X153290861Y-91235800D01*
X153392594Y-91208541D01*
X153483806Y-91155880D01*
X153558280Y-91081406D01*
X153610941Y-90990194D01*
X153638200Y-90888461D01*
X153638200Y-90882247D01*
X154317674Y-91561721D01*
X154350059Y-91517149D01*
X154442955Y-91334831D01*
X154506190Y-91140217D01*
X154538200Y-90938117D01*
X154538200Y-90733482D01*
X154506190Y-90531382D01*
X154442955Y-90336768D01*
X154350059Y-90154450D01*
X154317674Y-90109877D01*
X154317674Y-90109876D01*
X153638200Y-90789351D01*
X153638200Y-90783139D01*
X153610941Y-90681406D01*
X153558280Y-90590194D01*
X153483806Y-90515720D01*
X153392594Y-90463059D01*
X153290861Y-90435800D01*
X153284646Y-90435800D01*
X153964122Y-89756324D01*
X153964121Y-89756323D01*
X153919559Y-89723947D01*
X153919550Y-89723941D01*
X153865821Y-89696565D01*
X153815025Y-89648591D01*
X153798230Y-89580770D01*
X153820767Y-89514635D01*
X153865821Y-89475595D01*
X153919810Y-89448087D01*
X153969344Y-89412098D01*
X154085413Y-89327771D01*
X154085415Y-89327768D01*
X154085419Y-89327766D01*
X154230166Y-89183019D01*
X154230168Y-89183015D01*
X154230171Y-89183013D01*
X154318706Y-89061153D01*
X154350487Y-89017410D01*
X154443420Y-88835019D01*
X154506677Y-88640334D01*
X154538700Y-88438152D01*
X154538700Y-88233448D01*
X154506677Y-88031265D01*
X154443418Y-87836576D01*
X154381826Y-87715697D01*
X154350487Y-87654190D01*
X154342756Y-87643549D01*
X154230171Y-87488586D01*
X154085413Y-87343828D01*
X153919813Y-87223515D01*
X153919812Y-87223514D01*
X153919810Y-87223513D01*
X153862853Y-87194491D01*
X153737423Y-87130581D01*
X153542734Y-87067322D01*
X153360036Y-87038386D01*
X153340552Y-87035300D01*
X153135848Y-87035300D01*
X153116364Y-87038386D01*
X152933665Y-87067322D01*
X152738976Y-87130581D01*
X152556586Y-87223515D01*
X152390986Y-87343828D01*
X152246228Y-87488586D01*
X152125915Y-87654186D01*
X152032981Y-87836576D01*
X151969722Y-88031265D01*
X151937700Y-88233448D01*
X151937700Y-88438151D01*
X151969722Y-88640334D01*
X152032981Y-88835023D01*
X152096891Y-88960453D01*
X152111013Y-88988168D01*
X152125915Y-89017413D01*
X152246228Y-89183013D01*
X152390986Y-89327771D01*
X152556585Y-89448084D01*
X152556587Y-89448085D01*
X152556590Y-89448087D01*
X152610578Y-89475595D01*
X152661374Y-89523569D01*
X152678169Y-89591390D01*
X152655632Y-89657525D01*
X152610578Y-89696565D01*
X152556844Y-89723943D01*
X152512277Y-89756323D01*
X152512277Y-89756324D01*
X153191754Y-90435800D01*
X153185539Y-90435800D01*
X153083806Y-90463059D01*
X152992594Y-90515720D01*
X152918120Y-90590194D01*
X152865459Y-90681406D01*
X152838200Y-90783139D01*
X152838200Y-90789353D01*
X152158724Y-90109877D01*
X152158723Y-90109877D01*
X152126343Y-90154444D01*
X152033442Y-90336772D01*
X152007313Y-90417188D01*
X151967875Y-90474863D01*
X151903516Y-90502060D01*
X151834670Y-90490145D01*
X151783195Y-90442900D01*
X151778898Y-90435163D01*
X151724529Y-90328458D01*
X151706083Y-90303070D01*
X151706082Y-90303069D01*
X151051754Y-90957399D01*
X151048200Y-90957399D01*
X151048200Y-90911322D01*
X151024348Y-90822305D01*
X150978270Y-90742495D01*
X150913105Y-90677330D01*
X150833295Y-90631252D01*
X150744278Y-90607400D01*
X150652122Y-90607400D01*
X150563105Y-90631252D01*
X150483295Y-90677330D01*
X150418130Y-90742495D01*
X150372052Y-90822305D01*
X150348200Y-90911322D01*
X150298569Y-90911322D01*
X149690316Y-90303069D01*
X149690316Y-90303070D01*
X149671869Y-90328460D01*
X149586114Y-90496762D01*
X149527748Y-90676397D01*
X149498200Y-90862952D01*
X148103682Y-90862952D01*
X148115137Y-90835297D01*
X148133597Y-90742495D01*
X148145900Y-90680644D01*
X148145900Y-90522955D01*
X148145899Y-90522953D01*
X148117714Y-90381258D01*
X148115137Y-90368303D01*
X148088117Y-90303070D01*
X148054797Y-90222627D01*
X148054790Y-90222614D01*
X147966798Y-90090925D01*
X147961147Y-90072878D01*
X147950923Y-90056969D01*
X147946471Y-90026007D01*
X147945920Y-90024247D01*
X147945900Y-90022034D01*
X147945900Y-89949516D01*
X150043869Y-89949516D01*
X150698200Y-90603846D01*
X150698201Y-90603846D01*
X151352528Y-89949516D01*
X151327133Y-89931066D01*
X151158837Y-89845314D01*
X150979202Y-89786948D01*
X150792647Y-89757400D01*
X150603753Y-89757400D01*
X150417197Y-89786948D01*
X150237562Y-89845314D01*
X150069260Y-89931069D01*
X150043870Y-89949516D01*
X150043869Y-89949516D01*
X147945900Y-89949516D01*
X147945900Y-89530296D01*
X147965585Y-89463257D01*
X147982214Y-89442620D01*
X150337369Y-87087464D01*
X150398690Y-87053981D01*
X150444446Y-87052674D01*
X150603714Y-87077900D01*
X150603719Y-87077900D01*
X150792686Y-87077900D01*
X150979318Y-87048340D01*
X151009953Y-87038386D01*
X151159032Y-86989947D01*
X151327399Y-86904160D01*
X151480273Y-86793090D01*
X151613890Y-86659473D01*
X151724960Y-86506599D01*
X151810747Y-86338232D01*
X151869140Y-86158518D01*
X151873016Y-86134046D01*
X151898700Y-85971886D01*
X151898700Y-85883111D01*
X156137500Y-85883111D01*
X156137500Y-86125688D01*
X156169161Y-86366185D01*
X156231947Y-86600504D01*
X156311718Y-86793087D01*
X156324776Y-86824612D01*
X156446064Y-87034689D01*
X156446066Y-87034692D01*
X156446067Y-87034693D01*
X156593733Y-87227136D01*
X156593739Y-87227143D01*
X156765256Y-87398660D01*
X156765262Y-87398665D01*
X156957711Y-87546336D01*
X157167788Y-87667624D01*
X157391900Y-87760454D01*
X157626211Y-87823238D01*
X157806586Y-87846984D01*
X157866711Y-87854900D01*
X157866712Y-87854900D01*
X158109289Y-87854900D01*
X158157388Y-87848567D01*
X158349789Y-87823238D01*
X158584100Y-87760454D01*
X158808212Y-87667624D01*
X159018289Y-87546336D01*
X159210738Y-87398665D01*
X159382265Y-87227138D01*
X159529936Y-87034689D01*
X159651224Y-86824612D01*
X159744054Y-86600500D01*
X159806838Y-86366189D01*
X159838500Y-86125688D01*
X159838500Y-85883112D01*
X159806838Y-85642611D01*
X159744054Y-85408300D01*
X159651224Y-85184188D01*
X159529936Y-84974111D01*
X159395899Y-84799430D01*
X159382266Y-84781663D01*
X159382260Y-84781656D01*
X159210743Y-84610139D01*
X159210736Y-84610133D01*
X159018293Y-84462467D01*
X159018292Y-84462466D01*
X159018289Y-84462464D01*
X158808212Y-84341176D01*
X158808205Y-84341173D01*
X158584104Y-84248347D01*
X158349785Y-84185561D01*
X158109289Y-84153900D01*
X158109288Y-84153900D01*
X157866712Y-84153900D01*
X157866711Y-84153900D01*
X157626214Y-84185561D01*
X157391895Y-84248347D01*
X157167794Y-84341173D01*
X157167785Y-84341177D01*
X156957706Y-84462467D01*
X156765263Y-84610133D01*
X156765256Y-84610139D01*
X156593739Y-84781656D01*
X156593733Y-84781663D01*
X156446067Y-84974106D01*
X156324777Y-85184185D01*
X156324773Y-85184194D01*
X156231947Y-85408295D01*
X156169161Y-85642614D01*
X156137500Y-85883111D01*
X151898700Y-85883111D01*
X151898700Y-85782913D01*
X151869140Y-85596281D01*
X151810745Y-85416563D01*
X151724959Y-85248200D01*
X151613890Y-85095327D01*
X151480273Y-84961710D01*
X151327399Y-84850640D01*
X151159036Y-84764854D01*
X150979318Y-84706459D01*
X150792686Y-84676900D01*
X150792681Y-84676900D01*
X150603719Y-84676900D01*
X150603714Y-84676900D01*
X150417081Y-84706459D01*
X150237363Y-84764854D01*
X150069000Y-84850640D01*
X149981779Y-84914010D01*
X149916127Y-84961710D01*
X149916125Y-84961712D01*
X149916124Y-84961712D01*
X149782512Y-85095324D01*
X149782512Y-85095325D01*
X149782510Y-85095327D01*
X149734810Y-85160979D01*
X149671440Y-85248200D01*
X149585654Y-85416563D01*
X149527259Y-85596281D01*
X149497700Y-85782913D01*
X149497700Y-85971886D01*
X149522925Y-86131151D01*
X149513970Y-86200445D01*
X149488133Y-86238230D01*
X146980033Y-88746330D01*
X146980026Y-88746337D01*
X146976686Y-88749678D01*
X146976684Y-88749680D01*
X146864880Y-88861484D01*
X146836965Y-88909835D01*
X146831203Y-88919813D01*
X146831201Y-88919817D01*
X146791740Y-88988166D01*
X146785823Y-88998415D01*
X146744899Y-89151143D01*
X146744899Y-89151145D01*
X146744899Y-89319246D01*
X146744900Y-89319259D01*
X146744900Y-90022034D01*
X146725215Y-90089073D01*
X146724002Y-90090925D01*
X146636009Y-90222614D01*
X146636002Y-90222627D01*
X146575664Y-90368298D01*
X146575661Y-90368310D01*
X146544900Y-90522953D01*
X137498588Y-90522953D01*
X135176798Y-88201163D01*
X135143313Y-88139840D01*
X135146547Y-88075166D01*
X135187553Y-87948968D01*
X135207705Y-87821726D01*
X135224500Y-87715697D01*
X135224500Y-87479502D01*
X135187553Y-87246231D01*
X135149975Y-87130580D01*
X135114568Y-87021608D01*
X135114566Y-87021605D01*
X135114566Y-87021603D01*
X135036970Y-86869313D01*
X135007343Y-86811167D01*
X134868517Y-86620090D01*
X134701510Y-86453083D01*
X134510433Y-86314257D01*
X134299996Y-86207033D01*
X134075368Y-86134046D01*
X133842097Y-86097100D01*
X133842092Y-86097100D01*
X133605908Y-86097100D01*
X133605903Y-86097100D01*
X133372631Y-86134046D01*
X133148003Y-86207033D01*
X132937566Y-86314257D01*
X132866094Y-86366185D01*
X132746490Y-86453083D01*
X132746488Y-86453085D01*
X132746487Y-86453085D01*
X132579485Y-86620087D01*
X132579485Y-86620088D01*
X132579483Y-86620090D01*
X132550869Y-86659474D01*
X132440657Y-86811166D01*
X132433984Y-86824263D01*
X132386008Y-86875058D01*
X132318187Y-86891852D01*
X132252053Y-86869313D01*
X132208602Y-86814597D01*
X132199500Y-86767966D01*
X132199500Y-85401350D01*
X132199726Y-85393863D01*
X132209902Y-85225631D01*
X132217271Y-85103801D01*
X132219076Y-85088940D01*
X132242392Y-84961712D01*
X132270780Y-84806797D01*
X132274364Y-84792263D01*
X132277667Y-84781663D01*
X132359696Y-84518422D01*
X132364998Y-84504441D01*
X132482731Y-84242849D01*
X132489676Y-84229616D01*
X132638080Y-83984126D01*
X132646567Y-83971830D01*
X132823480Y-83746017D01*
X132833395Y-83734826D01*
X133036226Y-83531995D01*
X133047417Y-83522080D01*
X133273230Y-83345167D01*
X133285526Y-83336680D01*
X133531016Y-83188276D01*
X133544249Y-83181331D01*
X133805841Y-83063598D01*
X133819822Y-83058296D01*
X134093668Y-82972962D01*
X134108197Y-82969380D01*
X134390344Y-82917675D01*
X134405201Y-82915871D01*
X134695264Y-82898326D01*
X134702751Y-82898100D01*
X134764892Y-82898100D01*
X158681308Y-82898100D01*
X158743449Y-82898100D01*
X158750936Y-82898326D01*
G37*
%TD.AperFunction*%
%TD*%
M02*
